<svg xmlns="http://www.w3.org/2000/svg" viewBox="0 0 100 100">
  <defs>
    <linearGradient id="bgGrad" x1="0%" y1="0%" x2="100%" y2="100%">
      <stop offset="0%" stop-color="#0142a2" />
      <stop offset="100%" stop-color="#1a6ed8" />
    </linearGradient>
  </defs>
  <rect width="100" height="100" rx="30" ry="30" fill="url(#bgGrad)" />
  <path d="M72.2 60.1c-2.3 0-4.6-.4-6.8-1-1.1-.3-2.3 0-3.1.8l-5.6 5.6c-7.3-3.7-13.4-9.8-17.1-17.1l5.6-5.6c.8-.8 1.1-2 .8-3.1-.7-2.2-1-4.5-1-6.8 0-1.8-1.5-3.3-3.3-3.3H33.1c-1.8 0-3.3 1.5-3.3 3.3C29.8 55.4 44.6 70.2 66.7 70.2c1.8 0 3.3-1.5 3.3-3.3V58.3c0-1.8-1.5-3.3-3.3-3.3z" fill="#ffffff" />
</svg>
